<?xml version="1.0" encoding="UTF-8"?><!DOCTYPE svg PUBLIC "-//W3C//DTD SVG 1.1//EN" "http://www.w3.org/Graphics/SVG/1.1/DTD/svg11.dtd"><svg xmlns="http://www.w3.org/2000/svg" xmlns:xlink="http://www.w3.org/1999/xlink"><symbol id="fullscreen-icon" viewBox="0 0 20 20"><path d="M0 0v6h3V3h3V0H0zM3 14H0v6h6v-3H3v-3zM17 0h-3v3h3v3h3V0h-3zM17 17h-3v3h6v-6h-3v3z"/>
</symbol><symbol id="htmlacademy" viewBox="0 0 27 35">
<path d="M13.6 0H13.5L0 1.4V26.1L13.5 34.1L26.9 26.1V1.4L13.6 0ZM25 12.1L13.5 5.3V5.2H13.4L13.3 5.1V5.2L1.9 12.1V3.1L13.4 1.9L25 3.1V12.1ZM13.4 6.8L24.9 13.5L20.4 16.1L13.3 11.9V13.3L19.2 16.8L18.3 17.3L13.3 14.3V15.7L17.1 18L16.3 18.5L13.3 16.7V18.1L15.2 19.2L13.4 20.3L2 13.6L13.4 6.8ZM1.9 15.1L13.3 21.9V22.9L5.4 18.2V19.6L13.4 24.4V25.5L5.4 20.8V22.2L13.4 27L21.5 22.1V16.9L24.9 14.9V24.9L13.4 31.8L1.9 25V15.1Z" fill="black"/>
</symbol><symbol id="icon-facebook" viewBox="0 0 9 19">
<path d="M6.3 3.4C7.1 3.4 7.9 3.4 8.7 3.4C8.7 2.3 8.7 1.2 8.7 0C7.7 0 6.8 0 5.8 0C2.7 0.2 1.5 2.4 1.9 6.1H0V9.6H2C2 12.7 2 15.8 2 18.9C3.3 18.9 4.6 18.9 5.8 18.9C5.8 15.8 5.8 12.7 5.8 9.6H8.7V6.1H5.8C5.8 5.1 5.8 3.7 6.3 3.4Z" fill="white"/>
</symbol><symbol id="icon-twitter" viewBox="0 0 18 15">
<path d="M11.3 0.166728C13 -0.333272 14.4 0.366728 15 1.26673C15.7 1.06673 16.4 0.766728 17.1 0.566728C17.1 1.36673 16.6 2.06673 16.2 2.26673C16.9 2.46673 17.5 1.76673 17.5 1.76673C17.3 2.76673 16.5 3.46673 15.9 3.76673C15.7 10.3667 12.6 14.7667 5.5 14.5667C5 14.5667 5.6 14.5667 5 14.5667C4.6 14.5667 0.7 14.1667 0 12.7667C2.3 12.9667 4 12.3667 4.8 11.6667C3.8 11.3667 2 11.1667 1.7 8.76673C2.1 8.86673 2.3 8.96673 3 8.86673C1.8 8.06673 0.4 7.36673 0.5 5.16673C0.8 5.46673 1.6 5.66673 1.9 5.66673C1.2 5.46673 -0.1 2.36673 1 0.866728C2.9 2.66673 4.8 4.36673 8.4 4.56673C8.5 2.26673 9.5 0.766728 11.3 0.166728Z" fill="white"/>
</symbol><symbol id="icon-youtube" viewBox="0 0 20 14">
<path d="M17.1 0H2.8C1.3 0 0 1.3 0 2.8V11.1C0 12.7 1.3 14 2.8 14H17.1C18.7 14 19.9 12.7 19.9 11.2V2.8C20 1.3 18.7 0 17.1 0ZM7 10.4V3.6L13.8 7L7 10.4Z" fill="white"/>
</symbol><symbol id="like-icon" viewBox="0 0 23 21">
    <path d="M12.96 3.78l-.62 3.05-.63 2.62h9.09v2.2l-3.03 7.25h-9.4V8.4l4.6-4.62zM2.1 10.5v8.4-8.4zM13.8 0L6.9 6.93c-.42.32-.63.84-.63 1.47v10.5c0 1.16.94 2.1 2.1 2.1h9.4c.84 0 1.57-.52 1.88-1.26l3.14-7.45c.1-.21.1-.53.1-.74v-2.1H23a2.1 2.1 0 00-2.1-2.1h-6.58l1.05-4.83v-.31c0-.43-.21-.84-.42-1.16L13.8 0zM4.18 8.4H0V21h4.18V8.4z"/>
</symbol><symbol id="replay-icon" viewBox="0 0 16 20"><path d="M8 4V0L3 5l5 5V6c3.3 0 6 2.7 6 6s-2.7 6-6 6-6-2.7-6-6H0c0 4.4 3.6 8 8 8s8-3.6 8-8-3.6-8-8-8z"/>
</symbol><symbol id="subtitles-icon" viewBox="0 0 32 20"><path d="M29 0H3C1.3 0 0 1.3 0 3v14c0 1.7 1.3 3 3 3h26c1.7 0 3-1.3 3-3V3c0-1.7-1.3-3-3-3zM14.4 15.9c-.5.1-1.1.1-1.7.1-.7 0-1.4-.1-2-.3-.6-.2-1.2-.6-1.6-1-.4-.4-.8-1.1-1.1-1.9-.3-.8-.4-1.7-.4-2.8 0-1.1.2-2.1.5-2.9.3-.8.7-1.4 1.2-1.9s1.1-.8 1.7-1c.5-.1 1.2-.2 1.8-.2.7 0 1.2 0 1.7.1s.8.2 1.1.3l-.4 1.9-.9-.3H13c-.9 0-1.6.3-2.2 1-.6.7-.8 1.7-.8 3 0 .6.1 1.1.2 1.6s.3.9.6 1.3c.3.3.6.6 1 .8.4.2.9.3 1.4.3.5 0 .9 0 1.3-.1.3-.1.6-.2.9-.4l.5 1.8c-.5.3-1 .4-1.5.6zm8.7 0c-.5.1-1.1.1-1.7.1-.7 0-1.4-.1-2-.3-.6-.2-1.2-.6-1.6-1-.5-.5-.9-1.1-1.1-1.9-.3-.8-.4-1.7-.4-2.8 0-1.1.2-2.1.5-2.9.3-.8.7-1.4 1.2-1.9s1.1-.8 1.7-1c.5-.1 1.2-.2 1.8-.2.7 0 1.2 0 1.7.1s.8.2 1.1.3l-.4 1.9L23 6h-1.3c-.9 0-1.6.3-2.2 1-.6.7-.8 1.7-.8 3 0 .6.1 1.1.2 1.6s.3.9.6 1.3c.3.3.6.6 1 .8.4.2.9.3 1.4.3.5 0 .9 0 1.3-.1.3-.1.6-.2.9-.4l.5 1.8c-.5.3-1 .4-1.5.6z"/></symbol></svg>